<?xml version="1.0" encoding="UTF-8" standalone="no"?>
<!-- Created with Inkscape (http://www.inkscape.org/) -->

<svg
   width="76.277748mm"
   height="76.680817mm"
   viewBox="0 0 76.277748 76.680816"
   version="1.1"
   id="svg1149"
   xmlns="http://www.w3.org/2000/svg"
   xmlns:svg="http://www.w3.org/2000/svg">
  <defs
     id="defs1146" />
  <g
     id="layer1"
     transform="translate(-79.06802,-76.44966)">
    <g
       id="g4356"
       transform="translate(-43.988935,4.7205204)">
      <rect
         style="fill:none;fill-opacity:1;stroke:none;stroke-width:1.10315"
         id="rect4244"
         width="78.016983"
         height="77.680908"
         x="121.67525"
         y="70.862427" />
      <ellipse
         style="fill:#281d00;fill-opacity:1;stroke:#3a3a3a;stroke-width:3.52087;stroke-miterlimit:4;stroke-dasharray:none;stroke-opacity:1"
         id="path32845"
         cx="161.22063"
         cy="109.70288"
         rx="36.378441"
         ry="36.579975" />
      <ellipse
         style="fill:#c0c0c0;fill-opacity:1;stroke:#3a3a3a;stroke-width:1.274;stroke-miterlimit:4;stroke-dasharray:none;stroke-opacity:1"
         id="path32845-7-5"
         cx="134.08051"
         cy="133.01884"
         rx="1.794588"
         ry="1.8045295" />
      <ellipse
         style="fill:#c0c0c0;fill-opacity:1;stroke:#3a3a3a;stroke-width:1.274;stroke-miterlimit:4;stroke-dasharray:none;stroke-opacity:1"
         id="path32845-7-5-6"
         cx="134.08051"
         cy="87.807846"
         rx="1.794588"
         ry="1.8045295" />
      <ellipse
         style="fill:#c0c0c0;fill-opacity:1;stroke:#3a3a3a;stroke-width:1.274;stroke-miterlimit:4;stroke-dasharray:none;stroke-opacity:1"
         id="path32845-7-5-6-9"
         cx="187.35289"
         cy="87.807846"
         rx="1.794588"
         ry="1.8045295" />
      <ellipse
         style="fill:#c0c0c0;fill-opacity:1;stroke:#3a3a3a;stroke-width:1.274;stroke-miterlimit:4;stroke-dasharray:none;stroke-opacity:1"
         id="path32845-7-5-6-9-9"
         cx="187.35289"
         cy="133.01884"
         rx="1.794588"
         ry="1.8045295" />
      <ellipse
         style="fill:#3f2e00;fill-opacity:1;stroke:none;stroke-width:0.680742;stroke-opacity:1"
         id="path30397-2"
         cx="10.223193"
         cy="207.59572"
         rx="9.982954"
         ry="7.8409858"
         transform="matrix(0.80708384,-0.59043685,0.73496444,0.67810565,0,0)" />
      <path
         style="fill:#3f2e00;fill-opacity:1;stroke:none;stroke-width:0.611211px;stroke-linecap:butt;stroke-linejoin:miter;stroke-opacity:1"
         d="m 166.03241,127.72251 c -5.41118,-20.70114 -18.79156,-46.965205 -18.79156,-46.965205 0,0 4.36391,-4.65998 15.30451,-3.696311 9.36996,0.825313 19.36836,8.837768 19.36836,8.837768 -7.11571,-2.465993 -12.33255,-3.528371 -12.33255,-3.528371 -7.69275,-2.258434 -14.58127,0.411968 -14.58127,0.411968 l 15.61311,48.978191"
         id="path30578-7" />
      <path
         style="fill:#ffffff;stroke:#808080;stroke-width:0.264583;opacity:0;"
         d="m 128.5232,95.542151 v 0.541867 h 2.05458 v 15.217442 h -2.05458 v 0.54186 h 6.97654 c 3.36409,0 5.37352,-1.60302 5.37352,-4.28978 0,-2.30294 -1.2192,-3.68018 -3.81565,-4.24463 1.35467,-0.42897 3.09316,-1.89653 3.09316,-3.635022 0,-3.160892 -2.2352,-4.131737 -4.69618,-4.131737 z m 4.31236,7.631299 v -5.667031 c 0,-1.174045 0.24836,-1.422401 1.2192,-1.422401 h 0.76765 c 2.16747,0 2.95769,0.993423 2.95769,3.567292 0,2.52871 -0.90311,3.52214 -3.29636,3.52214 z m 0,0.47413 h 1.6256 c 2.66418,0 3.90596,0.47413 3.90596,3.83823 0,3.11573 -0.99342,3.81565 -3.68018,3.81565 h -0.8128 c -0.90311,0 -1.03858,-0.13547 -1.03858,-1.71592 z m 15.44323,7.65388 h -0.8128 c -1.26435,0 -1.28693,-0.42898 -1.28693,-1.33209 V 96.084018 h 2.032 v -0.541867 h -6.38952 v 0.541867 h 2.05458 v 15.217442 h -2.05458 v 0.54186 h 11.40179 l 0.4064,-5.84765 h -0.94827 c -0.54186,4.22205 -1.8288,5.30579 -4.40267,5.30579 z m 13.25316,0.88053 c 5.10258,0 5.48641,-3.97369 5.48641,-6.50241 v -9.595562 h 2.21262 v -0.541867 h -5.57671 v 0.541867 h 2.16746 v 9.460102 c 0,1.96427 -0.0903,2.75449 -0.42897,3.61244 -0.63218,1.60303 -1.82881,2.50614 -3.34152,2.50614 -1.30951,0 -2.37067,-0.67733 -3.00285,-1.8288 -0.49671,-0.90311 -0.6096,-1.51271 -0.6096,-3.81565 v -9.934232 h 2.07716 v -0.541867 h -6.38952 v 0.541867 h 2.00943 v 11.401792 c 0,0.94826 0.22578,4.69618 5.39609,4.69618 z m 14.96909,-0.88053 h -1.26436 c -0.97085,0 -1.33209,-0.36125 -1.33209,-1.42241 v -6.00569 h 3.07058 v 3.11574 h 0.99342 v -6.43468 h -0.99342 v 2.86738 h -3.07058 v -5.915381 c 0,-1.264357 0.2032,-1.422401 1.17404,-1.422401 h 0.99343 c 2.61902,0 3.83822,0.316089 4.4704,4.876802 h 0.92569 l -0.24835,-5.418669 h -11.62757 v 0.541867 h 2.05458 v 15.217442 h -2.05458 v 0.54186 h 11.85334 l 0.38383,-5.6896 h -0.94827 c -0.63218,3.81565 -1.53529,5.14774 -4.38009,5.14774 z m 12.66616,0.54186 c -2.86738,0 -4.28978,-2.95769 -4.76392,-5.8928 h -0.90311 l 0.0677,6.16374 h 0.83538 l -0.0226,-2.39325 c 0.90312,1.6256 2.9577,2.48356 4.60587,2.48356 2.82223,0 4.92197,-1.6256 4.92197,-4.74134 0,-3.83823 -2.59645,-4.42525 -3.99628,-4.80907 l -2.032,-0.63218 c -1.69333,-0.51929 -2.4384,-1.64818 -2.4384,-3.273782 0,-1.873957 1.03858,-3.160892 2.61903,-3.160892 2.57386,0 3.83822,3.138315 4.28978,5.305784 h 0.92569 l -0.22578,-5.350939 h -0.8128 v 2.302935 c -0.63218,-1.828802 -1.94169,-2.641602 -4.10916,-2.641602 h -0.0903 c -2.52872,0 -4.24463,1.828801 -4.24463,4.560715 0,2.348091 1.06116,3.522141 3.88338,4.357511 l 1.80623,0.56445 c 0.67733,0.2032 2.77707,0.47413 2.77707,3.47698 0,1.39982 -0.6096,3.68018 -3.09316,3.68018 z"
         id="text2874-4"
         aria-label="BLUES" />
      <path
         d="m 139.96919,94.378334 h -0.5715 v -4.03225 h -1.41605 v -0.50165 h 3.39725 v 0.50165 h -1.4097 z m 5.56259,0 h -0.5715 v -2.11455 h -2.3241 v 2.11455 h -0.5715 v -4.5339 h 0.5715 v 1.9177 h 2.3241 v -1.9177 h 0.5715 z m 3.7719,0 h -2.53365 v -4.5339 h 2.53365 v 0.50165 h -1.96215 v 1.41605 h 1.84785 v 0.4953 h -1.84785 v 1.61925 h 1.96215 z"
         id="txt_THE"
         style="fill:#ffcc44;stroke:#808080;stroke-width:0.264583;opacity:0;"
         aria-label="THE" />
      <path
         style="fill:#ffcc44;stroke:#808080;stroke-width:0.265;opacity:0;"
         d="m 137.2752,123.34284 q 0.36689,0 0.62089,-0.254 0.26811,-0.26811 0.28222,-0.62089 v -3.65478 h -5.77144 v 3.65478 q 0,0.36689 0.26811,0.62089 0.26811,0.254 0.635,0.254 h 0.18344 v 0.14111 h -3.09033 v -0.14111 h 0.18345 q 0.36689,0 0.62089,-0.254 0.26811,-0.254 0.28222,-0.62089 v -7.84577 q -0.0141,-0.36689 -0.28222,-0.62089 -0.254,-0.254 -0.62089,-0.254 h -0.18345 v -0.14111 h 3.09033 v 0.14111 h -0.18344 q -0.36689,0 -0.635,0.254 -0.254,0.254 -0.26811,0.62089 v 3.76766 h 5.77144 v -3.76766 q -0.0141,-0.508 -0.45156,-0.762 -0.21166,-0.11289 -0.45155,-0.11289 h -0.18345 v -0.14111 h 3.09034 v 0.14111 h -0.18345 q -0.36689,0 -0.635,0.26811 -0.254,0.254 -0.26811,0.62089 v 7.83166 q 0.0141,0.36689 0.26811,0.62089 0.26811,0.254 0.635,0.254 h 0.18345 v 0.14111 h -3.09034 v -0.14111 z m 13.8571,0 h 0.11288 v 0.14111 h -3.17499 v -0.14111 h 0.127 q 0.29633,0 0.43744,-0.18345 0.15522,-0.19755 0.15522,-0.36689 0,-0.16933 -0.0564,-0.33866 l -0.90311,-2.39889 h -3.81 l -0.94544,2.413 q -0.0565,0.16933 -0.0565,0.33866 0,0.15523 0.14111,0.35278 0.15523,0.18345 0.45156,0.18345 h 0.127 v 0.14111 h -2.83633 v -0.14111 h 0.127 q 0.35278,0 0.69144,-0.22578 0.33867,-0.22578 0.55033,-0.66322 l 3.18911,-7.59177 q 0.52211,-1.143 0.52211,-1.45345 h 0.127 l 3.78178,9.04522 q 0.19755,0.43744 0.53622,0.66322 0.33867,0.22578 0.70556,0.22578 z m -6.94267,-3.71122 h 3.47133 l -1.69333,-4.52967 z m 10.63977,-5.588 h -0.90311 v 8.41022 q 0,0.36689 0.254,0.635 0.26811,0.254 0.64911,0.254 h 0.16934 l 0.0141,0.14111 h -3.09033 v -0.14111 h 0.18344 q 0.36689,0 0.62089,-0.254 0.26811,-0.254 0.28222,-0.62089 v -7.83166 q -0.0141,-0.36689 -0.28222,-0.62089 -0.254,-0.26811 -0.62089,-0.26811 h -0.18344 v -0.14111 h 3.80999 q 1.28411,0 2.01789,0.71966 0.73378,0.70556 0.73378,1.84856 0,1.12889 -0.70556,1.96144 -0.69144,0.81844 -1.69333,0.81844 0.21167,0.0988 0.49389,0.39512 0.29633,0.28222 0.52211,0.59266 1.21355,1.73567 1.58044,2.14489 0.36689,0.39511 0.52211,0.55033 0.15523,0.14111 0.33867,0.28222 0.18344,0.14111 0.36689,0.22578 0.40922,0.19756 0.87489,0.19756 v 0.14111 h -0.77611 q -0.60678,0 -1.12889,-0.21167 -0.52211,-0.22578 -0.79022,-0.45155 -0.254,-0.23989 -0.45156,-0.45156 -0.18344,-0.22578 -1.04422,-1.46755 -0.86078,-1.24178 -1.00189,-1.41111 -0.14111,-0.18345 -0.29633,-0.35278 -0.45156,-0.47978 -0.90311,-0.47978 v -0.14111 q 0.11289,0.0141 0.29633,0.0141 0.18345,0 0.45156,-0.0141 1.74977,-0.0423 2.20133,-1.46755 0.0847,-0.28223 0.0847,-0.52211 0,-0.254 0,-0.32456 -0.0282,-0.94544 -0.49388,-1.524 -0.46567,-0.57855 -1.25589,-0.62089 -0.33867,-0.0141 -0.84667,-0.0141 z m 12.50243,-0.43744 h 2.83633 v 0.14111 h -0.127 q -0.35278,0 -0.69145,0.22578 -0.33866,0.21166 -0.53622,0.64911 l -3.40077,7.60588 q -0.52211,1.143 -0.52211,1.45344 h -0.127 l -3.96522,-9.04521 q -0.19756,-0.45156 -0.55034,-0.66322 -0.33866,-0.22578 -0.69144,-0.22578 h -0.11289 v -0.14111 h 3.175 v 0.14111 h -0.127 q -0.29633,0 -0.45156,0.19755 -0.14111,0.18345 -0.14111,0.35278 0,0.15522 0.0706,0.32456 l 2.94922,7.39421 3.07622,-7.39421 q 0.0564,-0.16934 0.0564,-0.32456 0,-0.16933 -0.15522,-0.35278 -0.14111,-0.19755 -0.43744,-0.19755 h -0.127 z m 3.71121,9.73666 q 0.36689,0 0.62089,-0.254 0.26811,-0.26811 0.28222,-0.635 v -7.90222 q 0,-0.33867 -0.26811,-0.56444 -0.26811,-0.23989 -0.635,-0.23989 h -0.16933 l -0.0141,-0.14111 h 4.13455 q 0.43744,0 0.94544,-0.0847 0.52211,-0.0847 0.73378,-0.16933 v 1.778 h -0.14111 v -0.254 q 0,-0.33867 -0.23989,-0.57856 -0.22578,-0.23989 -0.55033,-0.254 h -2.87867 v 4.36033 h 2.38478 q 0.28222,-0.0141 0.47978,-0.21166 0.19755,-0.19756 0.19755,-0.49389 v -0.19756 h 0.14111 v 2.22956 h -0.14111 v -0.21167 q 0,-0.28222 -0.19755,-0.47978 -0.18345,-0.19755 -0.46567,-0.21167 h -2.39889 v 4.21922 h 2.01789 q 1.04422,0 1.59456,-0.46566 0.55033,-0.46567 0.91722,-1.38289 h 0.14111 l -0.81845,2.286 h -5.8561 v -0.14111 z m 7.97277,-0.43745 q -0.0423,-0.19755 -0.0423,-0.762 0,-0.56444 0.21166,-1.19944 h 0.127 q -0.0141,0.15522 -0.0141,0.31044 0,0.86078 0.52211,1.43934 0.52211,0.56444 1.38289,0.56444 0.889,0 1.45344,-0.53622 0.57856,-0.53622 0.57856,-1.34056 0,-0.81844 -0.55033,-1.32644 l -2.70933,-2.51178 q -0.762,-0.70555 -0.762,-1.70744 0,-1.00189 0.66322,-1.70744 0.67733,-0.71967 1.82033,-0.71967 0.53622,0 1.21355,0.14111 h 0.55034 v 1.73567 h -0.127 q 0,-0.66322 -0.46567,-1.05833 -0.45155,-0.39511 -1.17122,-0.39511 -0.71967,0 -1.21356,0.47977 -0.47977,0.47978 -0.47977,1.19945 0,0.71966 0.56444,1.24177 l 2.77989,2.56822 q 0.70555,0.64911 0.70555,1.778 0,1.12889 -0.71966,1.86267 -0.71967,0.71966 -1.91911,0.71966 -0.62089,0 -1.32645,-0.19755 -0.69144,-0.18345 -1.07244,-0.57856 z m 14.16754,-8.04332 q 0,-0.33867 -0.23989,-0.57856 -0.23989,-0.254 -0.56444,-0.26811 h -2.68111 v 8.45255 q 0.0141,0.36689 0.26811,0.62089 0.26811,0.254 0.635,0.254 h 0.18344 v 0.14111 h -3.09033 v -0.14111 h 0.18345 q 0.36689,0 0.62089,-0.254 0.26811,-0.254 0.28222,-0.60678 v -8.46666 h -2.68111 q -0.33867,0.0141 -0.57856,0.26811 -0.22577,0.23989 -0.22577,0.57856 v 0.23988 l -0.14111,0.0141 v -1.778 q 0.21166,0.0847 0.73377,0.16933 0.52211,0.0847 0.95956,0.0847 h 4.76955 q 0.69144,0 1.143,-0.0988 0.46567,-0.11289 0.56444,-0.15522 v 1.778 l -0.14111,-0.0141 z"
         id="ttx_harvest"
         aria-label="harvest" />
    </g>
  </g>
</svg>
