<!--?xml version="1.0" encoding="UTF-8" standalone="yes"?-->
<svg xmlns="http://www.w3.org/2000/svg" version="1.2" baseProfile="tiny" width="3cm" height="3cm"
     viewBox="-12 -22 24 24">


    <g transform="translate(0,-1)" opacity="1">
        <ellipse cx="5.25" cy="-12.25" rx="0.80" ry="1.5"
                 style="fill:#ceb090;stroke:#000000;stroke-width:0.1mm; stroke-cap:round;"></ellipse>
        <ellipse cx="-5.25" cy="-12.25" rx="0.80" ry="1.5"
                 style="fill:#ceb090;stroke:#000000;stroke-width:0.1mm; stroke-cap:round;"></ellipse>
        <path id="body" d="M 0 2 l -10 0 l 0 -3 q 0 -2 3 -3 l 4 0 l 0 -4 l 6 0 l 0 4 l 4 0 q 3 1 3 3 l 0 3 l -10 0"
              style="fill:#d1961d;stroke:#000000;stroke-width:0.1mm; stroke-cap:round;"></path>
        <path id="neck" d="M 0 -3 q -2 0 -3 -1 l 0 -4 l 6 0 l 0 4 q -1 1 -3 1"
              style="fill:#ceb090;stroke:#000000;stroke-width:0.1mm; stroke-cap:round;"></path>
        <g transform="translate(0,2)">

            <path id="head" opacity="0.0"
                  d="M 1 -8 l -2  0  q -1  0 -4 -6 l  0 -2  q  0 -4  4 -6 l  2  0  q  4  2  4  6 l  0  2  q -3 6 -4  6"
                  style="fill:#ceb090;stroke:#000000;stroke-width:0.1mm; stroke-cap:round;"></path>
            <path id="head" opacity="1.0" d="M 1  -7
                  l -2  0  q -4  0 -4 -7
                  l  0 -2  q  0 -4  4 -6
                  l  2  0  q  4  2  4  7
                  l  0  2  q  0 6 -4  6"
                  style="fill:#ceb090;stroke:#000000;stroke-width:0.1mm; stroke-cap:round;"></path>

            <path id="head" opacity="0.0"
                  d="M 1 -8 l -2  0  q -2  0 -4 -6 l  0 -2  q  0 -4  4 -6 l  2  0  q  4  2  4  6 l  0  2  q  -2 6 -4 6"
                  style="fill:#ceb090;stroke:#000000;stroke-width:0.1mm; stroke-cap:round;"></path>

            <path id="hair1" opacity="0.0" d="M 0 -22 l -2 -1 -3 5 -1 2 5 -6 3 2 1 4 0 -3 -1 -3 3 4 -1 -3 -2 -1 -2 0"
                  style="fill:#3d3846;stroke:#000000;stroke-width:0.1mm; stroke-cap:round;"></path>

            <path id="hair2" opacity="0.0" d="M 0 -21 l -2 -1 4 0 -2 1"
                  style="fill:#3d3846;stroke:#000000;stroke-width:0.1mm; stroke-cap:round;"></path>

            <path id="hair3" opacity="0.0" d="M 0 -20 l -1 0 -1 -1 -1 1 -1 2 -1 3 -1 -5 0 -1 5 -1 1 0
          1 0 5 1 0 1 -1 5 -1 -3 -1 -2 -1 -1 -1 1 -1 0"
                  style="fill:#3d3846;stroke:#000000;stroke-width:0.1mm; stroke-cap:round;"></path>

            <path id="hair4" opacity="0.0" d="M -2 -21 l -3 3 q 0 -4 3 -3 l 7 3 1 0 q -5 -8 -8.5 -3"
                  style="fill:#3d3846;stroke:#000000;stroke-width:0.1mm; stroke-cap:round;"></path>

            <path id="hair5" opacity="0.0" d="M 0 -21.5
            l -2 0
            -2 3
             -0.5 0
             -0.5 3
             -1 0
             0 -3
             1 -2
             2 -2.5
            3 0
            3 0
            2 2.5
            1 2
            0 3
            -1 0
            -0.5 -3
            -0.5 0
            -2 -3
            -2 0
            " style="fill:#3d3846;stroke:#000000;stroke-width:0.1mm; stroke-cap:round;"></path>

            <path id="hair6" opacity="0.0" d="M -2 -21
            l -4 3
            l 2 -4
            l 11 4
            l 1 -4
            l -1 -1
            l -9 -1
            l -1 2
            " style="fill:#3d3846;stroke:#000000;stroke-width:0.1mm; stroke-cap:round;"></path>

            <path id="hair7" opacity="0.0" d="M 0 -21

            l -6 3
            l 2 -4
            l 8 0
            l 3 5
            l -8 -5
            " style="fill:#3d3846;stroke:#000000;stroke-width:0.1mm; stroke-cap:round;"></path>


            <path id="goatie1" opacity="1.0" d="M 0 -11 l 2 0 l 0.5 2 l -0.5 -1 l -4 0 l -0.5 1 l 0.5 -2 l 2 0 "
                  style="fill:#3d3846;stroke:#000000;stroke-width:0.1mm; stroke-cap:round;"></path>
            <path id="goatie2" opacity="1.0" d="M 0 -9.35 l 1 0
                     l 0 0.5
                     l 1 0
                     l 0 2
                     l -1 1
                     l -2 0
                     l -1 -1
                     l 0 -2
                     l 1 0
                     l 0 -0.5
                     l 1 0
              " style="fill:#3d3846;stroke:#000000;stroke-width:0.1mm; stroke-cap:round;"></path>

            <path id="beard" opacity="0.0" d="M 0 -10
                     l 4 0
                     l -1.5 3
                     l -2.5 1
                     l -2.5 -1
                     l -1.5 -3
                     l 4 0

              " style="fill:#3d3846;stroke:#000000;stroke-width:0.1mm; stroke-cap:round;"></path>


            <path id="beard" opacity="0.0" d="M 0 -11.0
                     l 1 0
                     l 2 -0.5
                     l 1.5 -1
                     l -0.5 3
                     l -2 -0.5
                     l -2 -0.5
                     l -2 0.5
                     l -2 0.5
                     l -0.5 -3
                     l 1.5 1
                     l 2 0.5
                     l 1 0
              " style="fill:#3d3846;stroke:#000000;stroke-width:0.1mm; stroke-cap:round;"></path>

            <path id="vandike" opacity="0.0" d="M 0 -9.35
                     l 1 0
                     l 0 0.5
                     l 1 0
                     l 0 1
                     l -1 1
                     l -2 0
                     l -1 -1
                     l 0 -1
                     l 1 0
                     l 0 -0.5
                     l 1 0
              " style="fill:#3d3846;stroke:#000000;stroke-width:0.1mm; stroke-cap:round;"></path>

            <path id="vandike_m" opacity="0.0" d="M 0 -10.35
                     l -2 0
                      4 0

              " style="fill:#3d3846;stroke:#000000;stroke-width:0.1mm; stroke-cap:round;"></path>

            <path id="vandike_m" opacity="0.0" d="M 0 -10.35
                     l -3 0.5 -1 0.5 1 -2 2 0 1 0.5
                     1 -0.5 2 0 1 2 -1 -0.5 -3 -0.5



              " style="fill:#3d3846;stroke:#000000;stroke-width:0.1mm; stroke-cap:round;"></path>

            <path id="fav_left" opacity="0.0" d="M -4 -13 l 0 2 l -1 1 l -1 -2 l 1 -2 l 1 1"
                  style="fill:#3d3846;stroke:#000000;stroke-width:0.1mm; stroke-cap:round;"></path>

            <path id="fav_right" opacity="0.0" d="M 4 -13 l 0 2 l 1 1 l 1 -2 l -1 -2 l -1 1"
                  style="fill:#3d3846;stroke:#000000;stroke-width:0.1mm; stroke-cap:round;"></path>

            <path id="fav_lips" opacity="0.0" d="M 0 -10.35 l -1.5 0 3 0"
                  style="fill:#3d3846;stroke:#000000;stroke-width:0.1mm; stroke-cap:round;"></path>

            <path id="man_mouth5" opacity="0.0" d="M 0 -10
                    l -0.6 0
                    l -1.35 -0.25

                    l 1 1.25
                    l 2 0
                    l 1 -1.25

                    l -1.35 0.25
                    l -0.6 0
              " style="fill:#ffffff;stroke:#9c8267;stroke-width:0.1mm; stroke-cap:round;"></path>


            <g id="facial_features">
                <ellipse cx="-2.75" cy="-15.05" rx="1.80" ry="1.5" style="fill:#9c8267;stroke:#none;"></ellipse>
                <ellipse cx="2.75" cy="-15.05" rx="1.80" ry="1.5" style="fill:#9c8267;stroke:#none;"></ellipse>
                <g id="eyes" opacity="0">
                    <animate attributeName="opacity" values="1" begin="1s" dur="0.5s" eventvalue="onmouseover"
                             repeatCount="indefinite"></animate>
                    <ellipse cx="-2.5" cy="-15" rx="1" ry="0.5" style="fill:#F0F0F0;stroke:#none;"></ellipse>
                    <ellipse cx="2.5" cy="-15" rx="1" ry="0.5" style="fill:#F0F0F0;stroke:#none;"></ellipse>

                    <ellipse cx="-2.5" cy="-15" rx="0.5" ry="0.5" style="fill:#63452c;stroke:#none;"></ellipse>
                    <ellipse cx="2.5" cy="-15" rx="0.5" ry="0.5" style="fill:#63452c;stroke:#none;"></ellipse>
                    <ellipse cx="-2.5" cy="-15" rx="0.25" ry="0.25" style="fill:#000000;stroke:#none;"></ellipse>
                    <ellipse cx="2.5" cy="-15" rx="0.25" ry="0.25" style="fill:#000000;stroke:#none;"></ellipse>
                </g>
                <ellipse cx="0" cy="-12" rx="1.1" ry="0.35" style="fill:#9c8267;stroke:#none;"></ellipse>
            </g>

        </g>
    </g>


    <text class="words" x="0" y="-24" font-size="3" font-family="Roboto" text-anchor="middle">

    </text>


    <text x="0" y="0.5" font-size="1" font-family="Roboto" text-anchor="middle">
        Alex / Bass
    </text>

</svg>
