<!--?xml version="1.0" encoding="UTF-8" standalone="yes"?-->
<svg xmlns="http://www.w3.org/2000/svg" version="1.2" baseProfile="tiny" width="3cm" height="3cm"
     viewBox="-12 -22 24 24">


    <g transform="translate(0,1)" opacity="1">
        <ellipse cx="5.25" cy="-12.25" rx="0.80" ry="1.5"
                 style="fill:#d6c3c3;stroke:#000000;stroke-width:0.1mm; stroke-cap:round;"></ellipse>
        <ellipse cx="-5.25" cy="-12.25" rx="0.80" ry="1.5"
                 style="fill:#d6c3c3;stroke:#000000;stroke-width:0.1mm; stroke-cap:round;"></ellipse>
        <path id="body" d="M 0 0 l -10 0 l 0 -1 q 0 -2 3 -2 l 4 0 l 0 -4 l 6 0 l 0 4 l 5 0 q 2 1 2 3 l 0 0 l -10 0"
              style="fill:#241f31;stroke:#000000;stroke-width:0.1mm; stroke-cap:round;"></path>
        <path id="neck" d="M 0 -3 q -2 0 -3 -1 l 0 -4 l 6 0 l 0 4 q -1 1 -3 1"
              style="fill:#d6c3c3;stroke:#000000;stroke-width:0.1mm; stroke-cap:round;"></path>
        <g transform="translate(0,2)">
            <path id="head" opacity="1.0" d="M 1  -7
                  l -2  0  q -4  0 -4 -7
                  l  0 -2  q  0 -4  4 -6
                  l  2  0  q  4  2  4  7
                  l  0  2  q  0 6 -4  6"
                  style="fill:#d6c3c3;stroke:#000000;stroke-width:0.1mm; stroke-cap:round;"></path>
            <path id="hair3" opacity="1.0" d="M 0 -20 l -1 0 -1 -1 -1 1 -1 2 -1 3 -1 -5 0 -1 5 -1 1 0
          1 0 5 1 0 1 -1 5 -1 -3 -1 -2 -1 -1 -1 1 -1 0"
                  style="fill:#77767b;stroke:#000000;stroke-width:0.1mm; stroke-cap:round;"></path>
            <path id="vandike" opacity="1.0" d="M 0 -9.35
                     l 1 0
                     l 0 0.5
                     l 1 0
                     l 0 1
                     l -1 1
                     l -2 0
                     l -1 -1
                     l 0 -1
                     l 1 0
                     l 0 -0.5
                     l 1 0
              " style="fill:#77767b;stroke:#000000;stroke-width:0.1mm; stroke-cap:round;"></path>
            <path id="vandike_m" opacity="1.0" d="M 0 -10.35
                     l -2 0
                      4 0
              " style="fill:#77767b;stroke:#000000;stroke-width:0.1mm; stroke-cap:round;"></path>
            <g id="facial_features">
                <ellipse cx="-2.75" cy="-15.05" rx="1.80" ry="1.5" style="fill:#baa8a8;stroke:#none;"></ellipse>
                <ellipse cx="2.75" cy="-15.05" rx="1.80" ry="1.5" style="fill:#baa8a8;stroke:#none;"></ellipse>
                <g id="eyes" opacity="0">
                    <animate attributeName="opacity" values="1" begin="1s" dur="0.5s" eventvalue="onmouseover"
                             repeatCount="indefinite"></animate>
                    <ellipse cx="-2.5" cy="-15" rx="1" ry="0.5" style="fill:#F0F0F0;stroke:#none;"></ellipse>
                    <ellipse cx="2.5" cy="-15" rx="1" ry="0.5" style="fill:#F0F0F0;stroke:#none;"></ellipse>
                    <ellipse cx="-2.5" cy="-15" rx="0.5" ry="0.5" style="fill:#63452c;stroke:#none;"></ellipse>
                    <ellipse cx="2.5" cy="-15" rx="0.5" ry="0.5" style="fill:#63452c;stroke:#none;"></ellipse>
                    <ellipse cx="-2.5" cy="-15" rx="0.25" ry="0.25" style="fill:#000000;stroke:#none;"></ellipse>
                    <ellipse cx="2.5" cy="-15" rx="0.25" ry="0.25" style="fill:#000000;stroke:#none;"></ellipse>
                </g>
                <ellipse cx="0" cy="-12" rx="1.1" ry="0.35" style="fill:#baa8a8;stroke:#none;"></ellipse>
            </g>
        </g>
    </g>
    <text x="0" y="0.5" font-size="1" fill='#ffffff' font-family="Roboto" text-anchor="middle">
        David / Drums
    </text>
</svg>
